<svg xmlns="http://www.w3.org/2000/svg" width="182" height="44" viewBox="0 0 182 44">
  <g id="그룹_3597" data-name="그룹 3597" transform="translate(-24 -184)">
    <line id="선_275" data-name="선 275" x2="11.102" transform="translate(74.5 206.5)" fill="none" stroke="#656565" stroke-width="1"/>
    <line id="선_276" data-name="선 276" x2="11.102" transform="translate(143.5 206.5)" fill="none" stroke="#656565" stroke-width="1"/>
    <g id="그룹_3592" data-name="그룹 3592">
      <g id="타원_105" data-name="타원 105" transform="translate(24 184)" fill="#fff" stroke="#656565" stroke-width="1">
        <circle cx="22" cy="22" r="22" stroke="none"/>
        <circle cx="22" cy="22" r="21.5" fill="none"/>
      </g>
      <g id="그룹_3582" data-name="그룹 3582" transform="translate(-213.924 -148.5)">
        <path id="패스_1532" data-name="패스 1532" d="M269.1,364.117a.582.582,0,0,1-.415-.172l-1.747-1.747a.587.587,0,0,1,.83-.829L268.9,362.5a.287.287,0,0,0,.405,0l2.875-2.875a.587.587,0,0,1,.83.829l-3.493,3.493A.583.583,0,0,1,269.1,364.117Z" transform="translate(-9.861 -11.093)" fill="#1e1e1e"/>
        <path id="패스_1533" data-name="패스 1533" d="M265.045,362.32a6.7,6.7,0,1,1,6.7-6.7A6.706,6.706,0,0,1,265.045,362.32Zm0-12.224a5.526,5.526,0,1,0,5.526,5.525A5.532,5.532,0,0,0,265.045,350.1Z" transform="translate(-4.93 -4.93)" fill="#1e1e1e"/>
        <path id="패스_1534" data-name="패스 1534" d="M260.115,367.868a.586.586,0,0,1-.37-.131c-.4-.326-9.821-8.085-9.821-17.045a10.191,10.191,0,0,1,20.383,0c0,8.96-9.42,16.719-9.821,17.045A.587.587,0,0,1,260.115,367.868Zm0-26.195a9.028,9.028,0,0,0-9.018,9.018c0,7.18,6.756,13.792,8.826,15.648a.288.288,0,0,0,.383,0c2.071-1.858,8.828-8.477,8.828-15.648A9.029,9.029,0,0,0,260.115,341.673Z" transform="translate(0)" fill="#1e1e1e"/>
      </g>
    </g>
    <g id="그룹_3594" data-name="그룹 3594">
      <circle id="타원_107" data-name="타원 107" cx="22" cy="22" r="22" transform="translate(162 184)" fill="#fff"/>
      <g id="그룹_3584" data-name="그룹 3584" transform="translate(130.266 -48.5)">
        <g id="그룹_3583" data-name="그룹 3583" transform="translate(43.502 241.5)">
          <path id="패스_1535" data-name="패스 1535" d="M44.828,266.361a1.327,1.327,0,0,1-1.326-1.326V246a1.327,1.327,0,0,1,1.326-1.326h1.586a.26.26,0,0,0,.26-.26v-.793a.534.534,0,0,1,.533-.533h2.815a.26.26,0,0,0,.225-.13,2.894,2.894,0,0,1,5.024,0,.261.261,0,0,0,.226.13h2.815a.534.534,0,0,1,.533.533v.793a.261.261,0,0,0,.26.26h1.587A1.327,1.327,0,0,1,62.017,246v6.346a.533.533,0,0,1-1.066,0V246a.26.26,0,0,0-.26-.26H59.1a.26.26,0,0,0-.26.26v.793a.533.533,0,0,1-.533.533h-11.1a.533.533,0,0,1-.533-.533V246a.26.26,0,0,0-.26-.26H44.828a.26.26,0,0,0-.26.26v19.036a.26.26,0,0,0,.26.26h11.9a.533.533,0,1,1,0,1.066ZM48,244.152a.26.26,0,0,0-.261.26V246a.26.26,0,0,0,.261.26h9.518a.26.26,0,0,0,.26-.26v-1.586a.26.26,0,0,0-.26-.26H54.993a.535.535,0,0,1-.5-.355,1.833,1.833,0,0,0-3.464,0,.534.534,0,0,1-.5.354Z" transform="translate(-43.502 -241.5)" fill="#134aa9"/>
          <path id="패스_1536" data-name="패스 1536" d="M54.563,267.834a.533.533,0,1,1,0-1.066h9.518a.533.533,0,0,1,0,1.066Z" transform="translate(-50.064 -257.25)" fill="#134aa9"/>
          <path id="패스_1537" data-name="패스 1537" d="M54.563,276.257a.533.533,0,1,1,0-1.066h5.552a.533.533,0,1,1,0,1.066Z" transform="translate(-50.064 -262.5)" fill="#134aa9"/>
          <path id="패스_1538" data-name="패스 1538" d="M54.563,284.68a.533.533,0,1,1,0-1.066h5.552a.533.533,0,1,1,0,1.066Z" transform="translate(-50.064 -267.751)" fill="#134aa9"/>
          <path id="패스_1539" data-name="패스 1539" d="M54.563,293.1a.533.533,0,1,1,0-1.066h5.552a.533.533,0,1,1,0,1.066Z" transform="translate(-50.064 -273.001)" fill="#134aa9"/>
          <path id="패스_1540" data-name="패스 1540" d="M87.735,289.958a.53.53,0,0,1-.377-.156l-1.586-1.586a.533.533,0,0,1,.753-.754l1.026,1.026a.26.26,0,0,0,.368,0l2.612-2.612a.533.533,0,0,1,.753.753L88.112,289.8A.531.531,0,0,1,87.735,289.958Z" transform="translate(-69.753 -269.063)" fill="#134aa9"/>
          <path id="패스_1541" data-name="패스 1541" d="M83.278,287.361a6.085,6.085,0,1,1,6.085-6.085A6.092,6.092,0,0,1,83.278,287.361Zm0-11.1a5.019,5.019,0,1,0,5.019,5.019A5.025,5.025,0,0,0,83.278,276.257Z" transform="translate(-64.502 -262.5)" fill="#134aa9"/>
        </g>
        <circle id="타원_110" data-name="타원 110" cx="0.533" cy="0.533" r="0.533" transform="translate(52.222 243.619)" fill="#134aa9"/>
      </g>
    </g>
    <g id="그룹_3593" data-name="그룹 3593">
      <g id="타원_106" data-name="타원 106" transform="translate(93 184)" fill="#fff" stroke="#656565" stroke-width="1">
        <circle cx="22" cy="22" r="22" stroke="none"/>
        <circle cx="22" cy="22" r="21.5" fill="none"/>
      </g>
      <g id="그룹_3585" data-name="그룹 3585" transform="translate(-237.501 -47.5)">
        <path id="패스_1542" data-name="패스 1542" d="M352.249,265a11.748,11.748,0,1,1,5.864-21.93.5.5,0,0,1-.5.873,10.721,10.721,0,1,0,4.665,5.448,10.845,10.845,0,0,0-.716-1.5.5.5,0,0,1,.435-.755.507.507,0,0,1,.438.252,11.688,11.688,0,0,1,1.462,4.295A11.757,11.757,0,0,1,352.249,265Z" fill="#1e1e1e"/>
        <path id="패스_1543" data-name="패스 1543" d="M362.955,273.772a.5.5,0,0,1-.356-.147l-3-3a.5.5,0,1,1,.712-.712l2.468,2.469a.247.247,0,0,0,.348,0l5.467-5.467a.5.5,0,0,1,.712.712l-6,6A.5.5,0,0,1,362.955,273.772Z" transform="translate(-12.206 -16.273)" fill="#1e1e1e"/>
      </g>
    </g>
  </g>
</svg>
