<svg xmlns="http://www.w3.org/2000/svg" width="38" height="38" viewBox="0 0 38 38">
  <g id="그룹_3480" data-name="그룹 3480" transform="translate(-309 -101)">
    <circle id="타원_92" data-name="타원 92" cx="19" cy="19" r="19" transform="translate(309 101)" fill="#4e4e4e"/>
    <path id="Icon_awesome-pencil-alt" data-name="Icon awesome-pencil-alt" d="M19.095,5.452,17.327,7.22a.461.461,0,0,1-.652,0L12.418,2.963a.461.461,0,0,1,0-.652L14.186.543a1.845,1.845,0,0,1,2.6,0l2.3,2.3A1.838,1.838,0,0,1,19.095,5.452ZM10.9,3.83.829,13.9.016,18.56a.922.922,0,0,0,1.066,1.066l4.659-.817L15.812,8.738a.461.461,0,0,0,0-.652L11.555,3.83a.465.465,0,0,0-.656,0ZM4.76,13.037a.535.535,0,0,1,0-.759l5.906-5.906a.537.537,0,1,1,.759.759L5.519,13.037A.535.535,0,0,1,4.76,13.037ZM3.375,16.262H5.216v1.392l-2.474.433L1.55,16.9l.433-2.474H3.375Z" transform="translate(317.999 109.995)" fill="#fff"/>
  </g>
</svg>
