<svg xmlns="http://www.w3.org/2000/svg" width="60" height="60" viewBox="0 0 60 60">
  <g id="그룹_3479" data-name="그룹 3479" transform="translate(-91.388 -87.858)">
    <circle id="타원_9" data-name="타원 9" cx="30" cy="30" r="30" transform="translate(91.388 87.858)" fill="#f6f6f6"/>
    <g id="그룹_3445" data-name="그룹 3445" transform="translate(106.259 104.657)">
      <path id="패스_759" data-name="패스 759" d="M323.085,657.479A13.874,13.874,0,0,1,317,662.491a13.74,13.74,0,0,1-2.593.8,14.04,14.04,0,0,1-5.577,0,13.734,13.734,0,0,1-4.941-2.079,13.911,13.911,0,0,1-3.737-3.737q-.293-.434-.553-.889a1.83,1.83,0,0,0-2.3-.79h0a1.82,1.82,0,0,0-.883,2.569q.335.59.715,1.152a17.524,17.524,0,0,0,7.686,6.329,17.4,17.4,0,0,0,3.282,1.019,17.622,17.622,0,0,0,7.04,0,17.378,17.378,0,0,0,6.252-2.63,17.562,17.562,0,0,0,4.718-4.718q.379-.561.715-1.152a1.82,1.82,0,0,0-.883-2.569h0a1.83,1.83,0,0,0-2.3.79Q323.379,657.045,323.085,657.479Z" transform="translate(-296.181 -636.524)" fill="#bfbdbd"/>
      <circle id="타원_10" data-name="타원 10" cx="3.648" cy="3.648" r="3.648" transform="translate(2.935 1.156) rotate(-9.119)" fill="#bfbdbd"/>
      <circle id="타원_11" data-name="타원 11" cx="3.648" cy="3.648" r="3.648" transform="translate(19.582 1.156) rotate(-9.119)" fill="#bfbdbd"/>
    </g>
  </g>
</svg>
